<svg height="496pt" viewBox="0 0 496 496" width="496pt" xmlns="http://www.w3.org/2000/svg" xmlns:xlink="http://www.w3.org/1999/xlink"><linearGradient id="a" gradientUnits="userSpaceOnUse" x1="248" x2="248" y1="496" y2="0"><stop offset="0" stop-color="#9f2fff"/><stop offset="1" stop-color="#0bb1d3"/></linearGradient><path d="m344.96875 13.65625c-8.679688-8.679688-20.695312-13.65625-32.96875-13.65625s-24.289062 4.976562-32.96875 13.65625l-265.375 265.375c-8.808594 8.800781-13.65625 20.511719-13.65625 32.96875s4.847656 24.167969 13.65625 32.96875l137.375 137.375c8.679688 8.679688 20.695312 13.65625 32.96875 13.65625s24.289062-4.976562 32.96875-13.65625l265.375-265.375c8.808594-8.800781 13.65625-20.511719 13.65625-32.96875s-4.847656-24.167969-13.65625-32.96875zm-139.3125 457.375c-5.703125 5.695312-13.59375 8.96875-21.65625 8.96875s-15.953125-3.273438-21.65625-8.96875l-137.375-137.375c-5.785156-5.785156-8.96875-13.480469-8.96875-21.65625s3.183594-15.871094 8.96875-21.65625l15.03125-15.03125 180.6875 180.6875zm26.34375-26.34375-180.6875-180.6875 220.6875-220.6875 40 40v16l84.6875 84.6875h16l40 40zm239.03125-239.03125-7.03125 7.03125-44.6875-44.6875h-16l-75.3125-75.3125v-16l-44.6875-44.6875 7.03125-7.03125c5.703125-5.695312 13.59375-8.96875 21.65625-8.96875s15.953125 3.273438 21.65625 8.96875l137.375 137.375c5.785156 5.785156 8.96875 13.480469 8.96875 21.65625s-3.183594 15.871094-8.96875 21.65625zm-348.6875 200-48-48 11.3125-11.3125 48 48zm-45.65625-141.65625 155.3125 155.3125 187.3125-187.3125-155.3125-155.3125zm155.3125 132.6875-132.6875-132.6875 164.6875-164.6875 132.6875 132.6875zm141.65625-306.34375 32 32-11.3125 11.3125-32-32zm50.34375 53.65625c0 4.414062-3.574219 8-8 8s-8-3.585938-8-8 3.574219-8 8-8 8 3.585938 8 8zm-64-64c0 4.414062-3.574219 8-8 8s-8-3.585938-8-8 3.574219-8 8-8 8 3.585938 8 8zm-187.3125 184 12 12-14.34375 14.34375 11.3125 11.3125 14.34375-14.34375 12.6875 12.6875-14.34375 14.34375 11.3125 11.3125 14.527344-14.535156c6.585937 5.65625 14.777344 8.878906 23.535156 8.878906 20.007812 0 36.28125-16.28125 36.28125-36.289062 0-1.320313-.070312-2.632813-.207031-3.917969 1.296875.136719 2.605469.207031 3.925781.207031 20.007812 0 36.28125-16.28125 36.28125-36.289062 0-8.757813-3.214844-16.957032-8.871094-23.527344l14.527344-14.527344-11.3125-11.3125-14.34375 14.34375-12.6875-12.6875 14.34375-14.34375-11.3125-11.3125-14.34375 14.34375-12-12zm71.03125 40c-5.414062 0-10.503906-2.113281-14.34375-5.945312l-34.0625-34.054688 28.6875-28.6875 34.0625 34.054688c3.824219 3.832031 5.9375 8.929687 5.9375 14.34375 0 11.183593-9.105469 20.289062-20.28125 20.289062zm54.34375-74.632812c3.824219 3.832031 5.9375 8.929687 5.9375 14.34375 0 11.183593-9.105469 20.289062-20.28125 20.289062-5.414062 0-10.503906-2.113281-14.34375-5.945312l-34.0625-34.054688 28.6875-28.6875zm173.9375 218.632812c-3.695312 0-7.160156.902344-10.28125 2.40625l-96.0625-96.0625-11.3125 11.3125 96.0625 96.0625c-1.503906 3.128906-2.40625 6.585938-2.40625 10.28125 0 13.230469 10.769531 24 24 24s24-10.769531 24-24-10.769531-24-24-24zm0 32c-4.414062 0-8-3.59375-8-8s3.585938-8 8-8 8 3.59375 8 8-3.585938 8-8 8zm-5.65625-130.34375 11.3125-11.3125-29.65625-29.65625-32 32-18.34375-18.34375-11.3125 11.3125 56.0625 56.0625c-1.503906 3.128906-2.40625 6.585938-2.40625 10.28125 0 13.230469 10.769531 24 24 24s24-10.769531 24-24-10.769531-24-24-24c-3.695312 0-7.160156.902344-10.28125 2.40625l-26.40625-26.40625 20.6875-20.6875zm-2.34375 42.34375c4.414062 0 8 3.59375 8 8s-3.585938 8-8 8-8-3.59375-8-8 3.585938-8 8-8zm-125.65625 85.65625 11.3125-11.3125-18.34375-18.34375 20.6875-20.6875 26.40625 26.40625c-1.503906 3.128906-2.40625 6.585938-2.40625 10.28125 0 13.230469 10.769531 24 24 24s24-10.769531 24-24-10.769531-24-24-24c-3.695312 0-7.160156.902344-10.28125 2.40625l-56.0625-56.0625-11.3125 11.3125 18.34375 18.34375-32 32zm61.65625-21.65625c4.414062 0 8 3.59375 8 8s-3.585938 8-8 8-8-3.59375-8-8 3.585938-8 8-8zm-400-432c0 13.230469 10.769531 24 24 24 3.695312 0 7.152344-.902344 10.28125-2.40625l96.0625 96.0625 11.3125-11.3125-96.0625-96.0625c1.503906-3.128906 2.40625-6.585938 2.40625-10.28125 0-13.230469-10.769531-24-24-24s-24 10.769531-24 24zm24-8c4.414062 0 8 3.59375 8 8s-3.585938 8-8 8-8-3.59375-8-8 3.585938-8 8-8zm5.65625 130.34375-11.3125 11.3125 29.65625 29.65625 32-32 18.34375 18.34375 11.3125-11.3125-56.0625-56.0625c1.503906-3.128906 2.40625-6.585938 2.40625-10.28125 0-13.230469-10.769531-24-24-24s-24 10.769531-24 24 10.769531 24 24 24c3.695312 0 7.152344-.902344 10.28125-2.40625l26.40625 26.40625-20.6875 20.6875zm2.34375-42.34375c-4.414062 0-8-3.59375-8-8s3.585938-8 8-8 8 3.59375 8 8-3.585938 8-8 8zm125.65625-85.65625-11.3125 11.3125 18.34375 18.34375-20.6875 20.6875-26.40625-26.40625c1.503906-3.128906 2.40625-6.585938 2.40625-10.28125 0-13.230469-10.769531-24-24-24s-24 10.769531-24 24 10.769531 24 24 24c3.695312 0 7.152344-.902344 10.28125-2.40625l56.0625 56.0625 11.3125-11.3125-18.34375-18.34375 32-32zm-61.65625 21.65625c-4.414062 0-8-3.59375-8-8s3.585938-8 8-8 8 3.59375 8 8-3.585938 8-8 8zm0 0" fill="white"/></svg>